<svg width="27" height="34" viewBox="0 0 27 34" fill="none" xmlns="http://www.w3.org/2000/svg">
<path d="M24.081 2.46874H19.361C19.361 1.11457 18.2952 0.0729065 17.0264 0.0729065H9.92112C8.60157 0.0729065 7.58652 1.16666 7.58652 2.46874H2.86658C1.54702 2.46874 0.531982 3.56249 0.531982 4.86457V7.26041C0.531982 8.61457 1.59778 9.65624 2.86658 9.65624V31.4271C2.86658 32.7812 3.93237 33.8229 5.20118 33.8229H21.6956C23.0152 33.8229 24.0302 32.7292 24.0302 31.4271V9.76041C25.3498 9.76041 26.3648 8.66666 26.3648 7.36457V4.96874C26.4156 3.56249 25.3498 2.46874 24.081 2.46874ZM21.7464 31.5312H5.25193V9.76041H7.58652V29.0833H9.92112V9.76041H12.2557V29.0833H14.5903V9.76041H17.0264V29.0833H19.361V9.76041H21.6956V31.5312H21.7464ZM24.081 7.31249H2.86658V4.91666H24.081V7.31249Z" fill="#59A5D8"/>
</svg>
